<?xml version="1.0" encoding="utf-8"?>
<!-- Generator: Adobe Illustrator 22.0.1, SVG Export Plug-In . SVG Version: 6.00 Build 0)  -->
<svg version="1.1"
	 id="svg2" inkscape:version="0.48+devel r10518" sodipodi:docname="Filmstrip-a.svg" xmlns:cc="http://creativecommons.org/ns#" xmlns:dc="http://purl.org/dc/elements/1.1/" xmlns:inkscape="http://www.inkscape.org/namespaces/inkscape" xmlns:rdf="http://www.w3.org/1999/02/22-rdf-syntax-ns#" xmlns:sodipodi="http://sodipodi.sourceforge.net/DTD/sodipodi-0.dtd" xmlns:svg="http://www.w3.org/2000/svg"
	 xmlns="http://www.w3.org/2000/svg" xmlns:xlink="http://www.w3.org/1999/xlink" x="0px" y="0px" viewBox="0 0 134.6 124"
	 style="enable-background:new 0 0 134.6 124;" xml:space="preserve">
<style type="text/css">
	.st0{fill:#FFFFFF;}
	.st1{fill:#ED9C00;}
	.st2{font-family:'CourierNewPSMT';}
	.st3{font-size:9px;}
	.st4{font-family:'Haettenschweiler';}
	.st5{font-size:46.8733px;}
	.st6{letter-spacing:0.8;}
</style>
<sodipodi:namedview  bordercolor="#666666" borderopacity="1.0" fit-margin-bottom="0" fit-margin-left="0" fit-margin-right="0" fit-margin-top="0" id="base" inkscape:current-layer="layer1" inkscape:cx="67.3125" inkscape:cy="72.911987" inkscape:document-units="px" inkscape:pageopacity="0.0" inkscape:pageshadow="2" inkscape:window-height="744" inkscape:window-maximized="1" inkscape:window-width="1280" inkscape:window-x="-4" inkscape:window-y="-4" inkscape:zoom="3.6139462" pagecolor="#ffffff" showgrid="false">
	</sodipodi:namedview>
<g id="layer1" transform="translate(0,-928.375)" inkscape:groupmode="layer" inkscape:label="Layer 1">
	<path id="rect10" inkscape:connector-curvature="0" class="st0" d="M0,928.4v124h134.6v-124H0z M7,934.7h2.8c1,0,1.8,0.8,1.8,1.8
		v6.4c0,1-0.8,1.8-1.8,1.8H7c-1,0-1.8-0.8-1.8-1.8v-6.4C5.2,935.5,6,934.7,7,934.7z M23.8,934.7h2.8c1,0,1.8,0.8,1.8,1.8v6.4
		c0,1-0.8,1.8-1.8,1.8h-2.8c-1,0-1.8-0.8-1.8-1.8v-6.4C22,935.5,22.8,934.7,23.8,934.7z M40.6,934.7h2.8c1,0,1.8,0.8,1.8,1.8v6.4
		c0,1-0.8,1.8-1.8,1.8h-2.8c-1,0-1.8-0.8-1.8-1.8v-6.4C38.9,935.5,39.6,934.7,40.6,934.7z M57.5,934.7h2.8c1,0,1.8,0.8,1.8,1.8v6.4
		c0,1-0.8,1.8-1.8,1.8h-2.8c-1,0-1.8-0.8-1.8-1.8v-6.4C55.7,935.5,56.5,934.7,57.5,934.7z M74.3,934.7h2.8c1,0,1.8,0.8,1.8,1.8v6.4
		c0,1-0.8,1.8-1.8,1.8h-2.8c-1,0-1.8-0.8-1.8-1.8v-6.4C72.5,935.5,73.3,934.7,74.3,934.7z M91.2,934.7H94c1,0,1.8,0.8,1.8,1.8v6.4
		c0,1-0.8,1.8-1.8,1.8h-2.8c-1,0-1.8-0.8-1.8-1.8v-6.4C89.4,935.5,90.2,934.7,91.2,934.7z M108,934.7h2.8c1,0,1.8,0.8,1.8,1.8v6.4
		c0,1-0.8,1.8-1.8,1.8H108c-1,0-1.8-0.8-1.8-1.8v-6.4C106.2,935.5,107,934.7,108,934.7z M124.8,934.7h2.8c1,0,1.8,0.8,1.8,1.8v6.4
		c0,1-0.8,1.8-1.8,1.8h-2.8c-1,0-1.8-0.8-1.8-1.8v-6.4C123.1,935.5,123.8,934.7,124.8,934.7z M3.5,947.8h127.6v85H3.5V947.8z
		 M6.4,1036.8h2.8c1,0,1.8,0.8,1.8,1.8v6.4c0,1-0.8,1.8-1.8,1.8H6.4c-1,0-1.8-0.8-1.8-1.8v-6.4C4.7,1037.5,5.4,1036.8,6.4,1036.8z
		 M23.3,1036.8h2.8c1,0,1.8,0.8,1.8,1.8v6.4c0,1-0.8,1.8-1.8,1.8h-2.8c-1,0-1.8-0.8-1.8-1.8v-6.4
		C21.5,1037.5,22.3,1036.8,23.3,1036.8z M40.1,1036.8h2.8c1,0,1.8,0.8,1.8,1.8v6.4c0,1-0.8,1.8-1.8,1.8h-2.8c-1,0-1.8-0.8-1.8-1.8
		v-6.4C38.3,1037.6,39.1,1036.8,40.1,1036.8z M56.9,1036.8h2.8c1,0,1.8,0.8,1.8,1.8v6.4c0,1-0.8,1.8-1.8,1.8h-2.8
		c-1,0-1.8-0.8-1.8-1.8v-6.4C55.2,1037.6,56,1036.8,56.9,1036.8z M73.8,1036.8h2.8c1,0,1.8,0.8,1.8,1.8v6.4c0,1-0.8,1.8-1.8,1.8
		h-2.8c-1,0-1.8-0.8-1.8-1.8v-6.4C72,1037.6,72.8,1036.8,73.8,1036.8z M90.6,1036.8h2.8c1,0,1.8,0.8,1.8,1.8v6.4
		c0,1-0.8,1.8-1.8,1.8h-2.8c-1,0-1.8-0.8-1.8-1.8v-6.4C88.8,1037.6,89.6,1036.8,90.6,1036.8z M107.4,1036.8h2.8c1,0,1.8,0.8,1.8,1.8
		v6.4c0,1-0.8,1.8-1.8,1.8h-2.8c-1,0-1.8-0.8-1.8-1.8v-6.4C105.7,1037.6,106.5,1036.8,107.4,1036.8z M124.3,1036.8h2.8
		c1,0,1.8,0.8,1.8,1.8v6.4c0,1-0.8,1.8-1.8,1.8h-2.8c-1,0-1.8-0.8-1.8-1.8v-6.4C122.5,1037.6,123.3,1036.8,124.3,1036.8z"/>
	<text transform="matrix(1 0 0 1 64.9415 934.9518)" class="st1 st2 st3">1</text>
	<text transform="matrix(1 0 0 1 63.558 1051.4449)" class="st1 st2 st3">1</text>
</g>
<text transform="matrix(1.1885 0 0 1 8.314 99.877)" class="st0 st4 st5">FINDER</text>
<text transform="matrix(1.2756 0 0 1 8.875 56.8135)" class="st0 st4 st5 st6">MOVIE</text>
</svg>
